<svg width="93" height="64" viewBox="0 0 93 64" fill="none" xmlns="http://www.w3.org/2000/svg">
<g clip-path="url(#clip0_1_58)">
<path fill-rule="evenodd" clip-rule="evenodd" d="M24.1803 20.897H28.4114V47.0193H24.1803V20.897ZM43.1282 38.7391C43.1282 42.7862 39.8169 43.1542 38.7131 43.1542C36.1377 43.1542 35.7698 40.7627 35.7698 39.475V29.3572H31.5387V39.291C31.5387 41.6825 32.2746 43.89 33.7462 45.1777C35.034 46.4654 36.6896 47.0173 38.7131 47.0173C40.1848 47.0173 42.0244 46.6494 43.1282 45.5456V47.0173H47.3593V29.3572H43.1282V38.7391ZM51.4061 22.9192H55.6372V29.3578H58.7645V33.4049H55.6372V47.0179H51.4061V33.4049H48.2788V29.3578H51.4061V22.9192ZM72.0096 41.6844C71.0898 42.4203 69.8021 42.9722 68.5144 42.9722C65.571 42.9722 63.5475 40.7646 63.5475 37.8213C63.5475 34.8779 65.571 32.8544 68.5144 32.8544C69.8021 32.8544 71.0898 33.2223 72.0096 34.1421L72.5615 34.694L75.5049 31.9346L74.769 31.3827C73.1134 29.911 70.9059 28.9912 68.5144 28.9912C63.3635 28.9912 59.5004 32.8544 59.5004 38.0052C59.5004 43.1561 63.3635 47.0193 68.5144 47.0193C70.9059 47.0193 73.1134 46.0995 74.769 44.6278L75.5049 44.0759L72.5615 41.1326L72.0096 41.6844ZM85.8064 28.9912C87.8299 28.9912 89.1176 29.5431 90.4053 30.8308C91.6931 32.1185 92.2449 34.3261 92.2449 36.7175V46.8353H88.0139V36.5336C88.0139 36.4567 88.0145 36.3759 88.0152 36.2918V36.2905C88.026 34.9674 88.0433 32.8544 85.6224 32.8544C84.5186 32.8544 81.7592 33.2223 81.7592 37.2694V47.0193H77.5282V20.897H81.7592V30.4629C82.863 29.3591 84.3347 28.9912 85.8064 28.9912ZM68.3305 40.95C69.9561 40.95 71.2739 39.6322 71.2739 38.0066C71.2739 36.381 69.9561 35.0632 68.3305 35.0632C66.7049 35.0632 65.3872 36.381 65.3872 38.0066C65.3872 39.6322 66.7049 40.95 68.3305 40.95ZM12.2228 42.9731C14.6143 42.9731 16.8218 42.0533 18.2935 40.5816L18.8454 40.0297L21.6048 42.7891L21.0529 43.341C18.8454 45.7325 15.5341 47.0202 12.2228 47.0202C5.41632 47.0202 0.265442 41.5014 0.265442 34.327C0.265442 27.1525 5.41632 21.6337 12.4068 21.8177C15.7181 21.8177 18.8454 23.1054 21.2369 25.4969L21.7888 26.0488L19.0294 28.8082L18.4775 28.2563C16.8218 26.6007 14.6143 25.6809 12.4068 25.6809C7.62384 25.6809 4.31256 29.3601 4.31256 34.327C4.31256 39.2939 7.62384 42.9731 12.2228 42.9731Z" fill="white"/>
</g>
<defs>
<clipPath id="clip0_1_58">
<rect width="92.7347" height="64" fill="white" transform="translate(0.265381)"/>
</clipPath>
</defs>
</svg>
