<svg width="104" height="64" viewBox="0 0 104 64" fill="none" xmlns="http://www.w3.org/2000/svg">
<path d="M25.3575 30.9385H13.3186V34.4957H21.8501C21.4235 39.5232 17.2526 41.6575 13.3186 41.6575C8.29451 41.6575 3.88657 37.6734 3.88657 32.1242C3.88657 26.7173 8.05752 22.5436 13.3186 22.5436C17.3474 22.5436 19.7646 25.1047 19.7646 25.1047L22.2767 22.4961C22.2767 22.4961 19.0537 18.939 13.2238 18.939C5.78246 18.9864 0 25.2945 0 32.0768C0 38.7643 5.40328 45.2621 13.4134 45.2621C20.4282 45.2621 25.5945 40.4243 25.5945 33.31C25.5945 31.7922 25.3575 30.9385 25.3575 30.9385ZM35.2161 28.3773C30.2868 28.3773 26.732 32.2191 26.732 36.7723C26.732 41.3255 30.1446 45.2621 35.2635 45.2621C39.861 45.2621 43.6528 41.7049 43.6528 36.8671C43.7002 31.2231 39.2923 28.3773 35.2161 28.3773ZM35.2635 31.6974C37.6808 31.6974 40.0032 33.642 40.0032 36.8197C40.0032 39.9026 37.7282 41.942 35.2635 41.942C32.5619 41.942 30.429 39.8077 30.429 36.8197C30.429 33.8791 32.5619 31.6974 35.2635 31.6974ZM53.6536 28.3773C48.7243 28.3773 45.1695 32.2191 45.1695 36.7723C45.1695 41.3255 48.5821 45.2621 53.701 45.2621C58.2985 45.2621 62.0903 41.7049 62.0903 36.8671C62.1377 31.2231 57.7298 28.3773 53.6536 28.3773ZM53.701 31.6974C56.1183 31.6974 58.4407 33.642 58.4407 36.8197C58.4407 39.9026 56.1657 41.942 53.701 41.942C50.9994 41.942 48.8665 39.8077 48.8665 36.8197C48.9139 33.8791 50.9994 31.6974 53.701 31.6974ZM71.7593 28.3773C67.2092 28.3773 63.6544 32.3614 63.6544 36.8197C63.6544 41.8946 67.778 45.2621 71.6646 45.2621C74.0818 45.2621 75.3615 44.3135 76.3095 43.2226V44.8826C76.3095 47.7758 74.5558 49.5307 71.8541 49.5307C69.2947 49.5307 67.9676 47.6335 67.541 46.5427L64.318 47.9181C65.4555 50.337 67.778 52.8981 71.9015 52.8981C76.4043 52.8981 79.8643 50.0524 79.8643 44.0763V28.8991H76.3095V30.3219C75.2193 29.1362 73.75 28.3773 71.7593 28.3773ZM72.0911 31.6974C74.3188 31.6974 76.5939 33.5945 76.5939 36.8197C76.5939 40.1397 74.3188 41.942 72.0437 41.942C69.6265 41.942 67.3988 39.9974 67.3988 36.8671C67.3514 33.5945 69.7213 31.6974 72.0911 31.6974ZM95.5527 28.3299C91.287 28.3299 87.6848 31.7448 87.6848 36.7723C87.6848 42.0843 91.6662 45.2621 95.9793 45.2621C99.5341 45.2621 101.762 43.3175 103.041 41.5626L100.103 39.618C99.3445 40.8037 98.0648 41.942 95.9793 41.942C93.6095 41.942 92.5193 40.6615 91.8558 39.3809L103.184 34.6854L102.615 33.31C101.477 30.6065 98.9179 28.3299 95.5527 28.3299ZM95.6949 31.6025C97.259 31.6025 98.3492 32.4088 98.8232 33.4048L91.287 36.5826C90.9552 34.1163 93.2777 31.6025 95.6949 31.6025ZM82.3289 44.7403H86.0259V19.8875H82.3289V44.7403Z" fill="white"/>
</svg>
