<svg width="134" height="64" viewBox="0 0 134 64" fill="none" xmlns="http://www.w3.org/2000/svg">
<g clip-path="url(#clip0_1_39)">
<path fill-rule="evenodd" clip-rule="evenodd" d="M21.5817 18.5129C21.5817 16.2422 23.3293 14.4143 25.5 14.4143C27.6708 14.4143 29.4184 16.2422 29.4184 18.5129V28.6014C29.4184 30.8721 27.6708 32.7 25.5 32.7C23.3293 32.7 21.5817 30.8721 21.5817 28.6014V18.5129ZM73.0909 45.5184L69.5039 45.5118L69.5025 45.512C69.125 45.4989 68.9342 45.3241 68.8925 44.9647C68.8509 44.6052 68.7212 25.6161 68.9141 17.3796C68.9147 17.2335 69.0192 17.1076 69.1648 17.0775C69.9544 16.8765 72.4177 16.8487 73.2821 16.9631C73.4732 16.9875 73.5946 17.0905 73.6061 17.3683C73.7423 20.562 73.8355 40.7989 73.6195 45.0495C73.6166 45.1148 73.6006 45.1789 73.5724 45.238C73.5442 45.297 73.5044 45.3498 73.4553 45.3931C73.3552 45.4815 73.2242 45.5265 73.0909 45.5184ZM58.3439 25.2874C53.3241 25.2874 50.5649 27.885 50.5649 31.6064L50.5955 31.6034C50.5955 35.4636 53.7369 36.728 57.643 37.4516C60.0733 37.9056 61.6109 38.5315 61.6323 39.6048C61.6574 40.8236 60.4839 41.5455 58.544 41.5912L58.0405 41.588C55.8696 41.5161 54.0146 40.4037 52.8776 39.7093C52.5533 39.51 51.9268 39.5604 51.6891 39.8791C51.2617 40.3694 50.7199 41.3036 50.3973 42.1173C50.1165 42.7478 50.6418 43.2739 50.6883 43.313C52.0679 44.4844 54.6407 45.6868 58.2678 45.7586C63.7529 45.8549 66.5786 42.7167 66.5786 39.2453C66.5786 35.158 63.5236 33.9932 59.4811 33.3122C57.3084 32.9474 55.5165 32.4901 55.5497 31.2224C55.5536 31.0327 55.5948 30.8419 55.6712 30.6507C56.0502 29.6886 57.1206 29.2507 58.4039 29.2229C58.7826 29.2148 59.1566 29.2342 59.5141 29.2718C60.8963 29.4165 62.4136 30.1738 63.3884 30.6604L63.5033 30.7177C63.7693 30.8517 64.2895 30.8993 64.4939 30.5283L65.5994 28.2559C65.7674 27.8683 65.6271 27.4179 65.2669 27.1891C63.9089 26.248 61.4023 25.2874 58.3439 25.2874ZM80.721 39.7925C80.7942 37.6769 83.3191 36.9369 86.0733 36.901L86.0729 36.9027C86.8108 36.932 87.2447 37.0072 87.8299 37.2488C87.9479 37.2965 88.2154 37.5509 88.2187 37.6818C88.2322 38.3075 88.1989 39.7694 87.9661 40.1615C87.3394 41.2155 85.9165 42.011 84.0517 42.1873C82.1055 42.2951 80.721 41.4701 80.721 39.7925ZM84.8214 25.5786C80.7321 25.4855 78.1973 27.2481 76.9091 28.3803L76.9029 28.3479C76.7366 28.4949 76.6068 28.7287 76.6983 29.0096C76.7899 29.2904 77.9799 31.0454 78.4519 31.6462C78.5486 31.7687 78.8458 31.8487 79.0371 31.7394C79.1219 31.6907 79.2192 31.6334 79.3273 31.5698C80.2534 31.0253 81.9729 30.0142 83.4286 29.9016C83.8516 29.8716 84.2763 29.8827 84.6969 29.9343C86.7414 30.1842 87.7136 31.1072 87.9631 32.254C88.0626 32.705 88.0859 33.6541 88.0793 34.1522C88.0761 34.3026 87.8549 34.3645 87.7469 34.3222C86.0547 33.6605 83.8176 33.4024 81.8328 33.6932C78.7344 34.1475 75.9139 36.0766 75.9038 39.9858C75.894 43.8036 79.2181 45.7312 82.5526 45.7312C84.7469 45.7312 86.8111 45.0777 88.071 43.7707C88.1211 43.7381 88.3155 43.7315 88.3205 43.934L88.3487 44.9436C88.3553 45.1868 88.4103 45.4171 88.8839 45.4399L92.7503 45.4317C92.8083 45.4419 92.8678 45.4382 92.924 45.4208C92.9802 45.4033 93.0314 45.3727 93.0734 45.3315C93.1578 45.2482 93.1954 45.1293 93.174 45.0135C93.2202 43.3177 93.3996 36.5092 93.2916 34.0684C93.0275 28.1631 90.1902 25.6881 84.8214 25.5786ZM105.141 25.544C98.8632 25.5865 94.9971 30.1866 95.0303 35.6397L95.0154 35.6201C95.0471 41.0926 98.4279 45.8038 105.243 45.755C108.497 45.7369 110.957 44.4055 112.231 42.8212C112.342 42.6839 112.571 42.3408 112.264 41.991C111.793 41.3754 110.947 40.4605 110.357 39.8675C110.056 39.6355 109.784 39.5246 109.521 39.7499C108.698 40.4933 107.139 41.4014 105.532 41.3622C102.44 41.2919 100.303 39.3202 100.28 35.7263C100.253 31.9835 102.504 29.948 105.522 29.948C107.186 29.948 108.878 30.6605 109.767 31.2437C109.812 31.2729 109.856 31.3034 109.899 31.3334C110.163 31.518 110.4 31.6825 110.618 31.4072C111.285 30.5362 111.876 29.6092 112.383 28.6365C112.455 28.4421 112.505 28.2804 112.405 28.0876C111.903 27.2642 109.058 25.5197 105.141 25.544ZM132.326 44.7911C131.278 45.0262 127.864 45.4903 127.544 45.5133L127.533 45.5419C127.373 45.5469 127.164 45.537 126.984 45.2854L124.602 41.9026C124.112 41.1887 123.607 40.4427 123.142 39.7556L123.14 39.7519L123.138 39.7485L123.137 39.7471L123.137 39.7469C122.374 38.6202 121.72 37.6535 121.416 37.2502C121.316 37.1164 121.16 37.1097 121.06 37.2044L119.328 38.9886C119.245 39.0572 119.195 39.3151 119.195 39.3151L119.122 45.131C119.122 45.131 119.062 45.4691 118.573 45.4691C117.579 45.4871 115.453 45.4902 114.594 45.4414C114.379 45.4261 114.211 45.2515 114.208 45.0395C114.089 42.0073 113.806 20.3377 114.005 17.3859C114.056 17.1433 114.252 16.9559 114.499 16.9121L118.414 16.9204C118.582 16.9282 118.881 17.1127 118.887 17.3579L119.048 33.0486C119.05 33.3996 119.193 33.4538 119.442 33.2089L126.939 25.8982C127.281 25.5716 127.73 25.5438 128.102 25.6206C128.985 25.8053 130.538 26.1566 131.498 26.4374C131.994 26.583 132.346 26.8524 131.761 27.4732L125.268 33.8706C125.135 34.0012 125.129 34.1644 125.252 34.328L128.8 38.7991L132.535 44.3044C132.679 44.5183 132.586 44.7323 132.326 44.7911ZM11.1327 39.4128C11.1327 37.1421 12.8803 35.3142 15.0511 35.3142C17.2218 35.3142 18.9694 37.1421 18.9694 39.4128V49.5013C18.9694 51.7719 17.2218 53.5999 15.0511 53.5999C12.8803 53.5999 11.1327 51.7719 11.1327 49.5013V39.4128ZM21.5817 39.2326C21.5817 41.4034 23.4097 43.1509 25.6803 43.1509H35.769C38.0397 43.1509 39.8676 41.4034 39.8676 39.2326C39.8676 37.0618 38.0396 35.3142 35.769 35.3142H25.6803C23.4096 35.3142 21.5817 37.0618 21.5817 39.2326ZM0.683716 28.7826C0.683716 30.9534 2.51163 32.701 4.78233 32.701H14.8708C17.1415 32.701 18.9694 30.9534 18.9694 28.7826C18.9694 26.6118 17.1415 24.8643 14.8708 24.8643H4.78233C2.51163 24.8643 0.683716 26.6118 0.683716 28.7826ZM21.5817 49.6789C21.5817 51.8496 23.3293 53.5972 25.5 53.5972C27.6708 53.5972 29.4184 51.8496 29.4184 49.6789C29.4184 47.5081 27.6708 45.7605 25.5 45.7605H21.5817V49.6789ZM32.0306 32.701H35.949C38.1198 32.701 39.8674 30.9534 39.8674 28.7826C39.8674 26.6118 38.1198 24.8643 35.949 24.8643C33.7782 24.8643 32.0306 26.6118 32.0306 28.7826V32.701ZM4.60208 35.3142H8.52045V39.2326C8.52045 41.4034 6.77286 43.1509 4.60208 43.1509C2.43131 43.1509 0.683716 41.4034 0.683716 39.2326C0.683716 37.0618 2.43131 35.3142 4.60208 35.3142ZM18.9695 22.251V18.3327C18.9695 16.1619 17.2219 14.4143 15.0511 14.4143C12.8803 14.4143 11.1327 16.1619 11.1327 18.3327C11.1327 20.5034 12.8803 22.251 15.0511 22.251H18.9695Z" fill="white"/>
</g>
<defs>
<clipPath id="clip0_1_39">
<rect width="133.224" height="62.6939" fill="white" transform="translate(0.0306396 0.653076)"/>
</clipPath>
</defs>
</svg>
